<svg width="18" height="17" viewBox="0 0 18 17" fill="none" xmlns="http://www.w3.org/2000/svg">
<g id="clarity:user-line" clip-path="url(#clip0_947_885)">
<path id="Vector" d="M13.9083 4.64669H12.0383V3.71169C12.0383 3.62903 12.0055 3.54976 11.947 3.49131C11.8886 3.43286 11.8093 3.40002 11.7267 3.40002C11.644 3.40002 11.5647 3.43286 11.5063 3.49131C11.4478 3.54976 11.415 3.62903 11.415 3.71169V4.64669H7.05167V3.71169C7.05167 3.62903 7.01883 3.54976 6.96038 3.49131C6.90193 3.43286 6.82266 3.40002 6.74 3.40002C6.65734 3.40002 6.57807 3.43286 6.51962 3.49131C6.46117 3.54976 6.42833 3.62903 6.42833 3.71169V4.64669H4.55833C4.14519 4.64719 3.74911 4.81153 3.45697 5.10366C3.16483 5.3958 3.00049 5.79188 3 6.20502V14.3084C3.00049 14.7215 3.16483 15.1176 3.45697 15.4097C3.74911 15.7019 4.14519 15.8662 4.55833 15.8667H13.9083C14.3215 15.8664 14.7177 15.7021 15.0099 15.4099C15.302 15.1177 15.4663 14.7216 15.4667 14.3084V6.20502C15.4663 5.79183 15.302 5.39565 15.0099 5.10348C14.7177 4.81131 14.3215 4.64702 13.9083 4.64669ZM14.8433 14.3084C14.8433 14.5563 14.7448 14.7942 14.5695 14.9695C14.3941 15.1448 14.1563 15.2434 13.9083 15.2434H4.55833C4.31036 15.2434 4.07254 15.1448 3.89719 14.9695C3.72184 14.7942 3.62333 14.5563 3.62333 14.3084V9.01002H14.8433V14.3084ZM14.8433 8.38669H3.62333V6.20502C3.62333 5.6889 4.04097 5.27002 4.55833 5.27002H6.42833V6.20502C6.42833 6.28768 6.46117 6.36696 6.51962 6.42541C6.57807 6.48385 6.65734 6.51669 6.74 6.51669C6.82266 6.51669 6.90193 6.48385 6.96038 6.42541C7.01883 6.36696 7.05167 6.28768 7.05167 6.20502V5.27002H11.415V6.20502C11.415 6.28768 11.4478 6.36696 11.5063 6.42541C11.5647 6.48385 11.644 6.51669 11.7267 6.51669C11.8093 6.51669 11.8886 6.48385 11.947 6.42541C12.0055 6.36696 12.0383 6.28768 12.0383 6.20502V5.27002H13.9083C14.1563 5.27002 14.3941 5.36853 14.5695 5.54388C14.7448 5.71923 14.8433 5.95705 14.8433 6.20502V8.38669Z" fill="#303030"/>
</g>
<defs>
<clipPath id="clip0_947_885">
<rect width="17" height="17" fill="white" transform="translate(0.5)"/>
</clipPath>
</defs>
</svg>
