<svg width="33" height="29" viewBox="0 0 33 29" fill="none" xmlns="http://www.w3.org/2000/svg">
<g id="Group 237647">
<g id="Group 237648">
<rect id="Rectangle 55" width="33" height="29" rx="10" fill="#55A99D"/>
<path id="Vector" d="M12.2857 8C11.9447 8 11.6177 8.13828 11.3766 8.38442C11.1355 8.63056 11 8.9644 11 9.3125V20.6875C11 21.0356 11.1355 21.3694 11.3766 21.6156C11.6177 21.8617 11.9447 22 12.2857 22H18.2857C18.6267 22 18.9537 21.8617 19.1949 21.6156C19.436 21.3694 19.5714 21.0356 19.5714 20.6875V19.375C19.5714 19.259 19.5263 19.1477 19.4459 19.0656C19.3655 18.9836 19.2565 18.9375 19.1429 18.9375C18.7889 18.9375 18.5626 18.8483 18.4091 18.731C18.2523 18.6111 18.1331 18.4317 18.0457 18.1859C17.8623 17.6714 17.8571 16.9897 17.8571 16.3125C17.8571 16.2549 17.846 16.198 17.8244 16.1448C17.8028 16.0917 17.7711 16.0434 17.7311 16.0028L17.486 15.7516L16.4463 14.6902C16.046 14.2816 15.9286 14.0078 15.9063 13.8546C15.8891 13.7321 15.9251 13.6499 16.0109 13.5659C16.1943 13.3865 16.3254 13.2649 16.4737 13.2281C16.562 13.2054 16.7634 13.1896 17.1251 13.5589L19.6966 16.1839C19.7769 16.266 19.886 16.3122 19.9997 16.3123C20.056 16.3123 20.1118 16.3011 20.1638 16.2791C20.2159 16.2571 20.2632 16.2249 20.303 16.1843C20.3428 16.1437 20.3745 16.0955 20.3961 16.0424C20.4176 15.9893 20.4288 15.9324 20.4288 15.8749C20.4289 15.8174 20.4178 15.7605 20.3963 15.7073C20.3748 15.6542 20.3432 15.6059 20.3034 15.5652L19.5714 14.8189V12.1186L21.7657 14.3586C21.8852 14.4805 21.9801 14.6252 22.0448 14.7845C22.1095 14.9438 22.1428 15.1145 22.1429 15.287V21.5625C22.1429 21.6785 22.188 21.7898 22.2684 21.8719C22.3488 21.9539 22.4578 22 22.5714 22C22.6851 22 22.7941 21.9539 22.8745 21.8719C22.9548 21.7898 23 21.6785 23 21.5625V15.287C22.9999 14.7071 22.7742 14.151 22.3726 13.7409L19.5714 10.8814V9.3125C19.5714 8.9644 19.436 8.63056 19.1949 8.38442C18.9537 8.13828 18.6267 8 18.2857 8H12.2857ZM18.7143 11.0625V13.9439L17.732 12.9402C17.2357 12.4345 16.7429 12.2604 16.2706 12.3776C16.1778 12.401 16.0878 12.4347 16.0023 12.4783C15.6191 12.3649 15.2154 12.3442 14.8231 12.4175C14.4307 12.4909 14.0604 12.6564 13.7415 12.901C13.4226 13.1456 13.1637 13.4626 12.9855 13.8269C12.8072 14.1912 12.7144 14.5928 12.7143 15C12.7143 15.5075 12.8583 16.004 13.129 16.4296C13.3997 16.8553 13.7854 17.1917 14.2395 17.3981C14.6936 17.6046 15.1966 17.6722 15.6876 17.5929C16.1786 17.5136 16.6365 17.2907 17.006 16.9513C17.0206 17.457 17.0703 18.01 17.24 18.4851C17.3669 18.8412 17.5691 19.1816 17.8949 19.4301L17.9 19.4354C17.639 19.5192 17.411 19.6858 17.2491 19.911C17.0873 20.1362 17 20.4082 17 20.6875V21.125H13.5714V20.6875C13.5714 20.3394 13.436 20.0056 13.1949 19.7594C12.9537 19.5133 12.6267 19.375 12.2857 19.375H11.8571V10.625H12.2857C12.6267 10.625 12.9537 10.4867 13.1949 10.2406C13.436 9.99444 13.5714 9.6606 13.5714 9.3125V8.875H17V9.3125C17 9.6606 17.1355 9.99444 17.3766 10.2406C17.6177 10.4867 17.9447 10.625 18.2857 10.625H18.7143V11.0625ZM18.7143 20.6875V20.6954C18.7123 20.81 18.6662 20.9193 18.5861 20.9997C18.5059 21.08 18.3981 21.125 18.2857 21.125H17.8571V20.6875C17.8571 20.5715 17.9023 20.4602 17.9827 20.3781C18.063 20.2961 18.172 20.25 18.2857 20.25H18.7143V20.6875ZM13.5714 15C13.5714 14.555 13.7375 14.1266 14.0359 13.8022C14.3343 13.4777 14.7426 13.2815 15.1777 13.2535C15.0714 13.4547 15.0174 13.6997 15.0586 13.9824C15.1194 14.4041 15.3826 14.8425 15.8394 15.3089L16.6169 16.1025C16.3937 16.3833 16.0908 16.5866 15.7498 16.6844C15.4089 16.7823 15.0466 16.77 14.7127 16.6492C14.3789 16.5283 14.09 16.3049 13.8856 16.0096C13.6812 15.7143 13.5715 15.3616 13.5714 15ZM12.7143 8.875V9.3125C12.7143 9.42853 12.6691 9.53981 12.5888 9.62186C12.5084 9.70391 12.3994 9.75 12.2857 9.75H11.8571V9.3125C11.8571 9.19647 11.9023 9.08519 11.9827 9.00314C12.063 8.92109 12.1721 8.875 12.2857 8.875H12.7143ZM11.8571 20.25H12.2857C12.3994 20.25 12.5084 20.2961 12.5888 20.3781C12.6691 20.4602 12.7143 20.5715 12.7143 20.6875V21.125H12.2857C12.1721 21.125 12.063 21.0789 11.9827 20.9969C11.9023 20.9148 11.8571 20.8035 11.8571 20.6875V20.25ZM18.7143 9.75H18.2857C18.172 9.75 18.063 9.70391 17.9827 9.62186C17.9023 9.53981 17.8571 9.42853 17.8571 9.3125V8.875H18.2857C18.3994 8.875 18.5084 8.92109 18.5888 9.00314C18.6691 9.08519 18.7143 9.19647 18.7143 9.3125V9.75Z" fill="white"/>
</g>
</g>
</svg>
