<svg width="18" height="13" viewBox="0 0 18 13" fill="none" xmlns="http://www.w3.org/2000/svg">
<g id="Group 237858">
<path id="Vector" d="M17.1219 5.68264C16.8519 5.31101 15.849 5.0551 15.4246 4.38632C15.0003 3.71753 14.653 2.2692 13.5731 1.71271C12.4931 1.15622 10.429 1 9.2504 1C8.07176 1 6.00914 1.15278 4.92773 1.71156C3.84633 2.27035 3.50047 3.71753 3.07616 4.38517C2.65185 5.05281 1.6489 5.31101 1.37891 5.68264C1.10893 6.05427 0.918876 8.40361 1.03453 9.55556C1.15018 10.7075 1.36602 11.3889 1.36602 11.3889H4.53362C5.05223 11.3889 5.22092 11.1868 6.2817 11.0833C7.44561 10.9687 8.58742 10.9306 9.2504 10.9306C9.91339 10.9306 11.092 10.9687 12.2552 11.0833C13.316 11.1876 13.4902 11.3889 14.0033 11.3889H17.134C17.134 11.3889 17.3499 10.7075 17.4655 9.55556C17.5812 8.40361 17.3904 6.05427 17.1219 5.68264ZM14.5543 11.3889H16.6169V12H14.5543V11.3889ZM1.88389 11.3889H3.94651V12H1.88389V11.3889Z" stroke="#303030" stroke-linecap="round" stroke-linejoin="round"/>
<path id="Vector_2" d="M12.5025 8.7185C12.4789 8.71221 12.4544 8.70589 12.4288 8.69956C12.1378 8.62755 11.7524 8.56244 11.299 8.50913C10.382 8.40129 10.0634 8.37489 9.25745 8.37489C8.52449 8.37489 8.16575 8.41171 7.42778 8.48746C7.35804 8.49462 7.28491 8.50212 7.20777 8.50998C6.7772 8.55382 6.4124 8.61364 6.12844 8.68467C6.08534 8.69545 6.04516 8.70624 6.00777 8.71695L12.5025 8.7185ZM12.5025 8.7185C12.492 8.71992 12.4816 8.72113 12.4713 8.72213C12.1288 8.7526 11.5166 8.75123 10.4348 8.74881C10.0927 8.74805 9.70373 8.74718 9.26146 8.74718C8.8192 8.74718 8.4302 8.74805 8.08815 8.74881C7.00497 8.75123 6.39257 8.7526 6.05032 8.72201L12.5025 8.7185ZM2.96229 6.5026C3.39285 6.49058 3.82998 6.51462 4.60544 6.69407M2.96229 6.5026C2.93328 6.50346 2.9057 6.5127 2.88484 6.52855C2.86398 6.5444 2.85131 6.56573 2.84927 6.58846C2.82337 6.74571 2.8294 6.90519 2.86713 7.06096M2.96229 6.5026L2.96497 6.59888L2.96522 6.60756L2.96599 6.63537L2.97624 7.00241C3.01358 7.00137 3.05101 7.0006 3.08882 7.00023L2.86713 7.06096M2.96229 6.5026L2.96514 6.59889L2.9654 6.60759L2.96623 6.63569L2.97711 7.00238C3.04047 7.0005 3.11631 6.98062 3.1873 6.92669C3.25362 6.87631 3.32139 6.78938 3.34243 6.66968C3.34451 6.65787 3.34613 6.64574 3.34725 6.63329L3.34561 6.65159L3.34262 6.66971C3.33188 6.73492 3.33059 6.80069 3.3389 6.86632C3.34091 6.86706 3.34301 6.86781 3.3452 6.86858C3.42771 6.89758 3.56084 6.91697 3.72552 6.91699L4.60544 6.69407M4.60544 6.69407C4.79898 6.73842 4.98674 6.79602 5.16665 6.86604M4.60544 6.69407L5.16665 6.86604M2.86713 7.06096C2.94114 7.33113 3.33962 7.41699 3.72571 7.41699M2.86713 7.06096L3.1187 7.00002C3.29963 6.99927 3.49108 7.00802 3.72557 7.03811L3.72571 7.41699M3.72571 7.41699C4.1795 7.41681 4.63301 7.40203 5.0851 7.3727C4.89909 7.29329 4.70093 7.22891 4.49375 7.18143L4.49272 7.18119L4.49272 7.18119C4.18566 7.11014 3.93804 7.06538 3.72571 7.03813V7.41699ZM5.65141 7.32827C5.62707 7.33051 5.60272 7.33271 5.57836 7.33486L5.63815 7.23349L5.65141 7.32827ZM5.65141 7.32827C5.75568 7.31367 5.78521 7.17601 5.70209 7.12507M5.65141 7.32827L5.64207 7.22684L5.70209 7.12507M5.70209 7.12507C5.6779 7.1108 5.65347 7.09679 5.62883 7.08305L5.64177 7.2235L5.70209 7.12507ZM5.16665 6.86604C4.96414 6.88031 4.76131 6.89158 4.55828 6.89986C4.55812 6.89987 4.55797 6.89987 4.55781 6.89988C4.28075 6.91117 4.00329 6.91688 3.72571 6.91699L5.16665 6.86604ZM12.8784 8.57495C12.8785 8.57496 12.8777 8.57588 12.8758 8.5777C12.8774 8.57586 12.8783 8.57495 12.8784 8.57495ZM5.6191 8.56115C5.61926 8.56114 5.62076 8.56256 5.62314 8.56544C5.62014 8.56261 5.61895 8.56116 5.6191 8.56115ZM3.29963 6.84826C3.29976 6.84821 3.30118 6.84902 3.30349 6.85083C3.30066 6.84921 3.2995 6.8483 3.29963 6.84826ZM5.57324 7.33532C5.47507 7.34399 5.37682 7.35196 5.27848 7.35925C5.24673 7.2778 5.2446 7.19256 5.26032 7.12577C5.27503 7.06325 5.30837 6.99931 5.35871 6.94687C5.44681 6.98683 5.5327 7.0299 5.6161 7.07598L5.63768 7.23017L5.57324 7.33532Z" stroke="#303030"/>
<path id="Vector_3" d="M15.9721 4.66663H16.5832M1.9165 4.66663H2.52762M2.45123 4.66663C2.45123 4.66663 4.22154 4.66663 9.24984 4.66663C14.2781 4.66663 16.0484 4.66663 16.0484 4.66663" stroke="#303030" stroke-linecap="round" stroke-linejoin="round"/>
</g>
</svg>
