<svg width="18" height="18" viewBox="0 0 18 18" fill="none" xmlns="http://www.w3.org/2000/svg">
<g id="clarity:user-line" clip-path="url(#clip0_947_874)">
<g id="Vector">
<mask id="path-1-inside-1_947_874" fill="white">
<path d="M4.67359 3.375H14.5262C15.1292 3.375 15.7076 3.611 16.134 4.03108C16.5604 4.45116 16.7999 5.02092 16.7999 5.615V12.335C16.7999 12.9291 16.5604 13.4988 16.134 13.9189C15.7076 14.339 15.1292 14.575 14.5262 14.575H4.67359C4.07057 14.575 3.49225 14.339 3.06585 13.9189C2.63945 13.4988 2.3999 12.9291 2.3999 12.335V5.615C2.3999 5.02092 2.63945 4.45116 3.06585 4.03108C3.49225 3.611 4.07057 3.375 4.67359 3.375ZM4.67359 4.12167C4.29464 4.12167 3.96117 4.2486 3.70348 4.4726L9.5999 8.22833L15.4963 4.4726C15.2386 4.2486 14.9052 4.12167 14.5262 4.12167H4.67359ZM9.5999 9.1318L3.25632 5.0774C3.19569 5.24167 3.1578 5.42833 3.1578 5.615V12.335C3.1578 12.7311 3.3175 13.1109 3.60176 13.3909C3.88603 13.671 4.27157 13.8283 4.67359 13.8283H14.5262C14.9282 13.8283 15.3138 13.671 15.598 13.3909C15.8823 13.1109 16.042 12.7311 16.042 12.335V5.615C16.042 5.42833 16.0041 5.24167 15.9435 5.0774L9.5999 9.1318Z"/>
</mask>
<path d="M4.67359 3.375H14.5262C15.1292 3.375 15.7076 3.611 16.134 4.03108C16.5604 4.45116 16.7999 5.02092 16.7999 5.615V12.335C16.7999 12.9291 16.5604 13.4988 16.134 13.9189C15.7076 14.339 15.1292 14.575 14.5262 14.575H4.67359C4.07057 14.575 3.49225 14.339 3.06585 13.9189C2.63945 13.4988 2.3999 12.9291 2.3999 12.335V5.615C2.3999 5.02092 2.63945 4.45116 3.06585 4.03108C3.49225 3.611 4.07057 3.375 4.67359 3.375ZM4.67359 4.12167C4.29464 4.12167 3.96117 4.2486 3.70348 4.4726L9.5999 8.22833L15.4963 4.4726C15.2386 4.2486 14.9052 4.12167 14.5262 4.12167H4.67359ZM9.5999 9.1318L3.25632 5.0774C3.19569 5.24167 3.1578 5.42833 3.1578 5.615V12.335C3.1578 12.7311 3.3175 13.1109 3.60176 13.3909C3.88603 13.671 4.27157 13.8283 4.67359 13.8283H14.5262C14.9282 13.8283 15.3138 13.671 15.598 13.3909C15.8823 13.1109 16.042 12.7311 16.042 12.335V5.615C16.042 5.42833 16.0041 5.24167 15.9435 5.0774L9.5999 9.1318Z" fill="#303030"/>
<path d="M4.67359 3.375V2.375V3.375ZM16.7999 5.615H17.7999H16.7999ZM16.7999 12.335H17.7999H16.7999ZM14.5262 14.575V15.575V14.575ZM4.67359 14.575V15.575V14.575ZM2.3999 12.335H1.3999H2.3999ZM2.3999 5.615H1.3999H2.3999ZM3.70348 4.4726L3.04742 3.71789L2.03665 4.59653L3.16625 5.31604L3.70348 4.4726ZM9.5999 8.22833L9.06267 9.07177L9.5999 9.41396L10.1371 9.07177L9.5999 8.22833ZM15.4963 4.4726L16.0336 5.31604L17.1632 4.59654L16.1524 3.71789L15.4963 4.4726ZM9.5999 9.1318L9.06137 9.9744L9.5999 10.3186L10.1384 9.9744L9.5999 9.1318ZM3.25632 5.0774L3.79486 4.2348L2.74828 3.56589L2.31819 4.73113L3.25632 5.0774ZM3.1578 12.335H2.1578H3.1578ZM15.9435 5.0774L16.8816 4.73113L16.4515 3.56589L15.4049 4.2348L15.9435 5.0774ZM4.67359 4.375H14.5262V2.375H4.67359V4.375ZM14.5262 4.375C14.8688 4.375 15.1944 4.50921 15.4321 4.74344L16.8358 3.31872C16.2207 2.71279 15.3897 2.375 14.5262 2.375V4.375ZM15.4321 4.74344C15.6694 4.97718 15.7999 5.29099 15.7999 5.615H17.7999C17.7999 4.75084 17.4513 3.92515 16.8358 3.31872L15.4321 4.74344ZM15.7999 5.615V12.335H17.7999V5.615H15.7999ZM15.7999 12.335C15.7999 12.659 15.6694 12.9728 15.4321 13.2066L16.8358 14.6313C17.4513 14.0249 17.7999 13.1992 17.7999 12.335H15.7999ZM15.4321 13.2066C15.1944 13.4408 14.8688 13.575 14.5262 13.575V15.575C15.3897 15.575 16.2207 15.2372 16.8358 14.6313L15.4321 13.2066ZM14.5262 13.575H4.67359V15.575H14.5262V13.575ZM4.67359 13.575C4.33101 13.575 4.00541 13.4408 3.76766 13.2066L2.36404 14.6313C2.97908 15.2372 3.81013 15.575 4.67359 15.575V13.575ZM3.76766 13.2066C3.53041 12.9728 3.3999 12.659 3.3999 12.335H1.3999C1.3999 13.1992 1.74849 14.0249 2.36404 14.6313L3.76766 13.2066ZM3.3999 12.335V5.615H1.3999V12.335H3.3999ZM3.3999 5.615C3.3999 5.29099 3.53041 4.97718 3.76766 4.74344L2.36404 3.31872C1.74849 3.92515 1.3999 4.75084 1.3999 5.615H3.3999ZM3.76766 4.74344C4.00541 4.50921 4.33101 4.375 4.67359 4.375V2.375C3.81013 2.375 2.97908 2.71279 2.36404 3.31872L3.76766 4.74344ZM4.67359 3.12167C4.06276 3.12167 3.49391 3.32976 3.04742 3.71789L4.35954 5.22731C4.42842 5.16744 4.52652 5.12167 4.67359 5.12167V3.12167ZM3.16625 5.31604L9.06267 9.07177L10.1371 7.3849L4.24071 3.62916L3.16625 5.31604ZM10.1371 9.07177L16.0336 5.31604L14.9591 3.62916L9.06267 7.3849L10.1371 9.07177ZM16.1524 3.71789C15.7059 3.32976 15.1371 3.12167 14.5262 3.12167V5.12167C14.6733 5.12167 14.7714 5.16744 14.8403 5.22731L16.1524 3.71789ZM14.5262 3.12167H4.67359V5.12167H14.5262V3.12167ZM10.1384 8.2892L3.79486 4.2348L2.71779 5.92L9.06137 9.9744L10.1384 8.2892ZM2.31819 4.73113C2.22115 4.99403 2.1578 5.29779 2.1578 5.615H4.1578C4.1578 5.55888 4.17023 5.48931 4.19446 5.42367L2.31819 4.73113ZM2.1578 5.615V12.335H4.1578V5.615H2.1578ZM2.1578 12.335C2.1578 13.0011 2.42654 13.6369 2.89995 14.1033L4.30357 12.6786C4.20846 12.5849 4.1578 12.461 4.1578 12.335H2.1578ZM2.89995 14.1033C3.37286 14.5692 4.01113 14.8283 4.67359 14.8283V12.8283C4.53202 12.8283 4.39919 12.7728 4.30357 12.6786L2.89995 14.1033ZM4.67359 14.8283H14.5262V12.8283H4.67359V14.8283ZM14.5262 14.8283C15.1887 14.8283 15.8269 14.5692 16.2999 14.1033L14.8962 12.6786C14.8006 12.7728 14.6678 12.8283 14.5262 12.8283V14.8283ZM16.2999 14.1033C16.7733 13.6369 17.042 13.0011 17.042 12.335H15.042C15.042 12.461 14.9914 12.5849 14.8962 12.6786L16.2999 14.1033ZM17.042 12.335V5.615H15.042V12.335H17.042ZM17.042 5.615C17.042 5.29779 16.9787 4.99403 16.8816 4.73113L15.0053 5.42367C15.0296 5.4893 15.042 5.55887 15.042 5.615H17.042ZM15.4049 4.2348L9.06137 8.2892L10.1384 9.9744L16.482 5.92L15.4049 4.2348Z" fill="#303030" mask="url(#path-1-inside-1_947_874)"/>
</g>
</g>
<defs>
<clipPath id="clip0_947_874">
<rect width="18" height="18" fill="white"/>
</clipPath>
</defs>
</svg>
