<svg width="15" height="21" viewBox="0 0 15 21" fill="none" xmlns="http://www.w3.org/2000/svg">
<g id="Layer 2">
<path id="Vector" d="M8.18314 5.14671L5.93347 0.421625C5.87323 0.295444 5.77693 0.188656 5.65597 0.113926C5.53502 0.0391956 5.3945 -0.000341819 5.25107 2.23117e-06H0.751746C0.625683 -0.000300509 0.501576 0.0302096 0.390897 0.0887122C0.280218 0.147215 0.186539 0.231822 0.118521 0.334712C0.0505026 0.437602 0.0103399 0.555454 0.00174508 0.677375C-0.00684977 0.799295 0.0164009 0.921349 0.0693477 1.03225L4.50119 10.2934C4.54474 10.3863 4.60798 10.4693 4.6868 10.5369C4.76561 10.6045 4.85822 10.6553 4.95862 10.686C5.05944 10.7159 5.16566 10.725 5.27032 10.7124C5.37498 10.6999 5.47575 10.6661 5.56603 10.6133L5.69351 10.5551C5.86547 10.4802 6.00202 10.3452 6.07595 10.1771L8.18314 5.75007C8.2277 5.65536 8.25076 5.55249 8.25076 5.44839C8.25076 5.3443 8.2277 5.24142 8.18314 5.14671Z" fill="#2185F5"/>
<path id="Vector_2" d="M14.8793 0.334393C14.8115 0.232021 14.7184 0.147765 14.6083 0.0893445C14.4983 0.0309236 14.3749 0.000204852 14.2494 2.22642e-06H9.75006C9.60663 -0.000341824 9.46611 0.0391956 9.34516 0.113926C9.22421 0.188656 9.1279 0.295444 9.06766 0.421625L4.71081 9.57376C4.64817 9.70758 4.62884 9.85667 4.65537 10.0014C4.68191 10.1461 4.75305 10.2795 4.85944 10.3842C4.96582 10.4889 5.10243 10.5599 5.25127 10.5878C5.40011 10.6158 5.55418 10.5993 5.69317 10.5406C6.29556 10.2863 6.94811 10.163 7.60494 10.1793C8.26176 10.1956 8.90693 10.3512 9.4951 10.6351C9.58414 10.677 9.68087 10.7014 9.77971 10.7069C9.87854 10.7125 9.97752 10.6989 10.0709 10.6672C10.1644 10.6354 10.2504 10.586 10.324 10.5219C10.3976 10.4577 10.4574 10.3801 10.4999 10.2934L14.9318 1.03225C14.9843 0.921042 15.007 0.798784 14.9979 0.676798C14.9887 0.554812 14.9479 0.437042 14.8793 0.334393Z" fill="#83BDFF"/>
<path id="Vector_3" d="M13.4998 14.5384C13.5004 15.5747 13.2152 16.5924 12.6739 17.4861C12.1326 18.3798 11.3548 19.117 10.4209 19.6214C9.48702 20.1259 8.43105 20.3793 7.36226 20.3554C6.29347 20.3315 5.25069 20.0311 4.34182 19.4854C3.43296 18.9397 2.69103 18.1685 2.19283 17.2516C1.69462 16.3346 1.45823 15.3053 1.50812 14.27C1.55802 13.2348 1.89238 12.2313 2.4766 11.3634C3.06083 10.4955 3.8737 9.79467 4.83109 9.33349C4.92175 9.28153 5.01714 9.23774 5.11605 9.20265C5.86649 8.87954 6.67959 8.71595 7.50069 8.72287C9.09175 8.72287 10.6176 9.33557 11.7427 10.4262C12.8677 11.5168 13.4998 12.996 13.4998 14.5384Z" fill="#FFBD00"/>
<path id="Vector_4" d="M13.5 14.5386C13.5 16.081 12.8679 17.5602 11.7429 18.6508C10.6178 19.7414 9.09192 20.3541 7.50085 20.3541V8.72314C9.09192 8.72314 10.6178 9.33585 11.7429 10.4265C12.8679 11.5171 13.5 12.9963 13.5 14.5386Z" fill="#F7D26B"/>
</g>
</svg>
