<svg width="19" height="19" viewBox="0 0 19 19" fill="none" xmlns="http://www.w3.org/2000/svg">
<g id="Group 278">
<path id="Vector" d="M8.1938 4.64917C8.03634 4.64917 7.88533 4.71173 7.77399 4.82308C7.66265 4.93443 7.6001 5.08545 7.6001 5.24292V10.4204L11.1029 12.7954C11.2344 12.8789 11.3934 12.9074 11.5457 12.8748C11.698 12.8421 11.8314 12.7509 11.917 12.6208C12.0027 12.4907 12.0339 12.3322 12.0037 12.1794C11.9736 12.0266 11.8846 11.8917 11.756 11.8039L8.7875 9.79105V5.24292C8.7875 5.08545 8.72495 4.93443 8.61361 4.82308C8.50227 4.71173 8.35126 4.64917 8.1938 4.64917Z" fill="#303030"/>
<path id="Vector_2" d="M9.4992 1.35429e-07C7.80315 0.00593968 6.13926 0.463372 4.67849 1.3253C3.21772 2.18722 2.01276 3.42256 1.1874 4.90438V1.9C1.1874 1.74253 1.12485 1.59151 1.01351 1.48016C0.902169 1.36881 0.751159 1.30625 0.5937 1.30625C0.436241 1.30625 0.285231 1.36881 0.173891 1.48016C0.0625503 1.59151 0 1.74253 0 1.9V7.125H5.22456C5.38202 7.125 5.53303 7.06244 5.64437 6.95109C5.75571 6.83975 5.81826 6.68872 5.81826 6.53125C5.81826 6.37378 5.75571 6.22275 5.64437 6.11141C5.53303 6.00006 5.38202 5.9375 5.22456 5.9375H1.98889C2.73769 4.35705 3.96584 3.05306 5.49858 2.21108C7.03132 1.36911 8.79054 1.03205 10.5259 1.24788C12.2613 1.46371 13.8844 2.22142 15.1642 3.4132C16.4441 4.60497 17.3155 6.17008 17.6544 7.88581C17.9933 9.60154 17.7825 11.3805 17.0519 12.9694C16.3214 14.5584 15.1083 15.8764 13.5854 16.736C12.0625 17.5956 10.3072 17.9529 8.56948 17.7571C6.83174 17.5612 5.20003 16.8223 3.90654 15.6453C3.84885 15.5927 3.78135 15.5519 3.70791 15.5254C3.63447 15.4988 3.55652 15.487 3.47851 15.4906C3.4005 15.4942 3.32396 15.5131 3.25326 15.5463C3.18256 15.5794 3.11909 15.6262 3.06646 15.6839C3.01383 15.7416 2.97308 15.8091 2.94654 15.8826C2.92 15.956 2.90818 16.034 2.91177 16.112C2.91535 16.19 2.93426 16.2665 2.96743 16.3372C3.00059 16.408 3.04736 16.4714 3.10505 16.5241C4.24623 17.5633 5.62344 18.3089 7.11752 18.6961C8.61159 19.0834 10.1775 19.1008 11.6798 18.7467C13.1821 18.3926 14.5755 17.6778 15.7394 16.664C16.9033 15.6503 17.8027 14.3682 18.3598 12.9286C18.9168 11.4891 19.1147 9.9355 18.9364 8.40227C18.758 6.86904 18.2088 5.40236 17.3362 4.12915C16.4636 2.85593 15.294 1.81454 13.9284 1.09507C12.5629 0.375604 11.0426 -0.000260473 9.4992 1.35429e-07Z" fill="#303030"/>
</g>
</svg>
