<svg width="17" height="17" viewBox="0 0 17 17" fill="none" xmlns="http://www.w3.org/2000/svg">
<g id="fluent-mdl2:chat-invite-friend">
<path id="Vector" d="M14.626 13.1982C14.9912 13.3753 15.3177 13.5967 15.6055 13.8623C15.8932 14.1279 16.1423 14.4268 16.3525 14.7588C16.5628 15.0908 16.7233 15.445 16.834 15.8213C16.9447 16.1976 17 16.5905 17 17H15.9375C15.9375 16.5628 15.8545 16.1506 15.6885 15.7632C15.5225 15.3758 15.2928 15.0382 14.9995 14.7505C14.7062 14.4627 14.3687 14.2358 13.9868 14.0698C13.605 13.9038 13.1927 13.818 12.75 13.8125C12.3128 13.8125 11.9006 13.8955 11.5132 14.0615C11.1258 14.2275 10.7882 14.4572 10.5005 14.7505C10.2127 15.0438 9.98584 15.3813 9.81982 15.7632C9.65381 16.145 9.56803 16.5573 9.5625 17H8.5C8.5 16.596 8.55534 16.2059 8.66602 15.8296C8.77669 15.4533 8.93441 15.0991 9.13916 14.7671C9.34391 14.4351 9.59294 14.1362 9.88623 13.8706C10.1795 13.605 10.5088 13.3809 10.874 13.1982C10.459 12.8994 10.138 12.5259 9.91113 12.0776C9.68425 11.6294 9.56803 11.1452 9.5625 10.625C9.5625 10.1878 9.64551 9.77555 9.81152 9.38818C9.97754 9.00081 10.2044 8.66325 10.4922 8.37549C10.7799 8.08773 11.1175 7.85807 11.5049 7.68652C11.8923 7.51497 12.3073 7.43197 12.75 7.4375C13.1872 7.4375 13.5994 7.52051 13.9868 7.68652C14.3742 7.85254 14.7118 8.07943 14.9995 8.36719C15.2873 8.65495 15.5169 8.99528 15.6885 9.38818C15.86 9.78109 15.943 10.1934 15.9375 10.625C15.9375 11.1396 15.8241 11.6211 15.5972 12.0693C15.3703 12.5176 15.0465 12.8939 14.626 13.1982ZM12.75 12.75C13.0433 12.75 13.3172 12.6947 13.5718 12.584C13.8263 12.4733 14.0532 12.3211 14.2524 12.1274C14.4517 11.9338 14.6038 11.7096 14.709 11.4551C14.8141 11.2005 14.8695 10.9238 14.875 10.625C14.875 10.3317 14.8197 10.0578 14.709 9.80322C14.5983 9.54867 14.4461 9.32178 14.2524 9.12256C14.0588 8.92334 13.8346 8.77116 13.5801 8.66602C13.3255 8.56087 13.0488 8.50553 12.75 8.5C12.4567 8.5 12.1828 8.55534 11.9282 8.66602C11.6737 8.77669 11.4468 8.92887 11.2476 9.12256C11.0483 9.31624 10.8962 9.54036 10.791 9.79492C10.6859 10.0495 10.6305 10.3262 10.625 10.625C10.625 10.9183 10.6803 11.1922 10.791 11.4468C10.9017 11.7013 11.0539 11.9282 11.2476 12.1274C11.4412 12.3267 11.6654 12.4788 11.9199 12.584C12.1745 12.6891 12.4512 12.7445 12.75 12.75ZM17 1.0625V9.5625C17 9.29688 16.9751 9.06445 16.9253 8.86523C16.8755 8.66602 16.8063 8.48063 16.7178 8.30908C16.6292 8.13753 16.5186 7.97152 16.3857 7.81104C16.2529 7.65055 16.1035 7.47624 15.9375 7.28809V2.125H1.0625V11.6875H3.1875V13.9038L5.40381 11.6875H8.64111C8.68538 11.8757 8.74349 12.0583 8.81543 12.2354C8.88737 12.4124 8.97314 12.584 9.07275 12.75H5.84375L2.125 16.4688V12.75H0V1.0625H17Z" fill="#303030"/>
</g>
</svg>
