<svg width="20" height="20" viewBox="0 0 20 20" fill="none" xmlns="http://www.w3.org/2000/svg">
<g id="ic:round-logout">
<path id="Vector" d="M15.8333 4.16667H10.8333C10.375 4.16667 10 3.79167 10 3.33333C10 2.875 10.375 2.5 10.8333 2.5H15.8333C16.75 2.5 17.5 3.25 17.5 4.16667V15.8333C17.5 16.75 16.75 17.5 15.8333 17.5H10.8333C10.375 17.5 10 17.125 10 16.6667C10 16.2083 10.375 15.8333 10.8333 15.8333H15.8333V4.16667Z" fill="#303030"/>
<path id="Vector_2" d="M2.79167 9.70834L5.11667 7.38334C5.17462 7.3238 5.24903 7.2829 5.33036 7.26589C5.41169 7.24888 5.49625 7.25653 5.57321 7.28785C5.65017 7.31917 5.71604 7.37274 5.76238 7.44171C5.80872 7.51068 5.83342 7.59191 5.83333 7.675V9.16667H11.6667C12.125 9.16667 12.5 9.54167 12.5 10C12.5 10.4583 12.125 10.8333 11.6667 10.8333H5.83333V12.325C5.83333 12.7 5.38333 12.8833 5.125 12.6167L2.8 10.2917C2.63333 10.1333 2.63333 9.86667 2.79167 9.70834Z" fill="#303030"/>
</g>
</svg>
