<svg width="18" height="18" viewBox="0 0 18 18" fill="none" xmlns="http://www.w3.org/2000/svg">
<g id="fluent:location-28-regular">
<path id="Vector" d="M8.99979 1.44641C10.6621 1.44641 12.2564 2.10677 13.4318 3.28222C14.6073 4.45768 15.2676 6.05193 15.2676 7.71427C15.2676 10.3628 13.4066 13.2493 9.73265 16.4044C9.52836 16.5799 9.2679 16.6763 8.99859 16.676C8.72928 16.6758 8.46898 16.579 8.26501 16.4031L8.02201 16.1923C4.51072 13.1194 2.73193 10.3037 2.73193 7.71427C2.73193 6.05193 3.3923 4.45768 4.56775 3.28222C5.7432 2.10677 7.33745 1.44641 8.99979 1.44641ZM8.99979 2.4107C7.5932 2.4107 6.24421 2.96946 5.2496 3.96408C4.25499 4.95869 3.69622 6.30767 3.69622 7.71427C3.69622 9.96555 5.33422 12.5595 8.65522 15.4652L8.895 15.6728C8.92416 15.6979 8.96134 15.7117 8.99979 15.7117C9.03824 15.7117 9.07542 15.6979 9.10458 15.6728C12.5863 12.6823 14.3034 10.0189 14.3034 7.71427C14.3034 7.01779 14.1662 6.32814 13.8997 5.68468C13.6331 5.04122 13.2425 4.45656 12.75 3.96408C12.2575 3.47159 11.6728 3.08094 11.0294 2.81441C10.3859 2.54788 9.69627 2.4107 8.99979 2.4107ZM8.99979 5.30355C9.63915 5.30355 10.2523 5.55754 10.7044 6.00964C11.1565 6.46173 11.4105 7.07491 11.4105 7.71427C11.4105 8.35363 11.1565 8.9668 10.7044 9.4189C10.2523 9.871 9.63915 10.125 8.99979 10.125C8.36043 10.125 7.74725 9.871 7.29516 9.4189C6.84306 8.9668 6.58908 8.35363 6.58908 7.71427C6.58908 7.07491 6.84306 6.46173 7.29516 6.00964C7.74725 5.55754 8.36043 5.30355 8.99979 5.30355ZM8.99979 6.26784C8.61617 6.26784 8.24827 6.42023 7.97701 6.69149C7.70575 6.96275 7.55336 7.33065 7.55336 7.71427C7.55336 8.09788 7.70575 8.46579 7.97701 8.73705C8.24827 9.00831 8.61617 9.1607 8.99979 9.1607C9.38341 9.1607 9.75131 9.00831 10.0226 8.73705C10.2938 8.46579 10.4462 8.09788 10.4462 7.71427C10.4462 7.33065 10.2938 6.96275 10.0226 6.69149C9.75131 6.42023 9.38341 6.26784 8.99979 6.26784Z" fill="#303030"/>
</g>
</svg>
