<svg width="19" height="18" viewBox="0 0 19 18" fill="none" xmlns="http://www.w3.org/2000/svg">
<g id="iconoir:language" clip-path="url(#clip0_731_4241)">
<g id="Group">
<path id="Vector" d="M1.58325 9.49992C1.58325 13.8723 5.12754 17.4166 9.49992 17.4166C13.8723 17.4166 17.4166 13.8723 17.4166 9.49992C17.4166 5.12754 13.8723 1.58325 9.49992 1.58325C5.12754 1.58325 1.58325 5.12754 1.58325 9.49992Z" stroke="#303030" stroke-width="1.5" stroke-linecap="round" stroke-linejoin="round"/>
<path id="Vector_2" d="M10.2916 1.6228C10.2916 1.6228 12.6666 4.74989 12.6666 9.49989C12.6666 14.2499 10.2916 17.377 10.2916 17.377M8.70828 17.377C8.70828 17.377 6.33328 14.2499 6.33328 9.49989C6.33328 4.74989 8.70828 1.6228 8.70828 1.6228M2.08203 12.2707H16.9179M2.08203 6.72905H16.9179" stroke="#303030" stroke-width="1.5" stroke-linecap="round" stroke-linejoin="round"/>
</g>
</g>
<defs>
<clipPath id="clip0_731_4241">
<rect width="19" height="19" fill="white"/>
</clipPath>
</defs>
</svg>
