<svg width="17" height="17" viewBox="0 0 17 17" fill="none" xmlns="http://www.w3.org/2000/svg">
<g id="cil:chat-bubble" clip-path="url(#clip0_731_4210)">
<g id="Group 296">
<path id="Vector" d="M15.8289 12.915C15.3435 12.4823 14.9185 11.9862 14.5654 11.4402C14.18 10.6864 13.9489 9.86325 13.8859 9.01901V6.53243C13.8892 5.2064 13.4082 3.92478 12.5333 2.92839C11.6583 1.932 10.4496 1.28941 9.13423 1.12136V0.472029C9.13423 0.293809 9.06343 0.122888 8.93741 -0.00313276C8.81139 -0.129153 8.64047 -0.199951 8.46225 -0.199951C8.28403 -0.199951 8.11311 -0.129153 7.98709 -0.00313276C7.86107 0.122888 7.79027 0.293809 7.79027 0.472029V1.13142C6.48671 1.31159 5.2926 1.95806 4.42913 2.95111C3.56565 3.94416 3.09131 5.21648 3.09396 6.53243V9.01901C3.03092 9.86325 2.79989 10.6864 2.41443 11.4402C2.06756 11.985 1.64943 12.481 1.17114 12.915C1.11745 12.9622 1.07442 13.0202 1.04491 13.0853C1.0154 13.1504 1.00009 13.221 1 13.2925V13.9771C1 14.1106 1.05303 14.2386 1.14743 14.333C1.24183 14.4274 1.36986 14.4804 1.50336 14.4804H15.4966C15.6301 14.4804 15.7582 14.4274 15.8526 14.333C15.947 14.2386 16 14.1106 16 13.9771V13.2925C15.9999 13.221 15.9846 13.1504 15.9551 13.0853C15.9256 13.0202 15.8826 12.9622 15.8289 12.915ZM2.04698 13.4737C2.51531 13.0213 2.92765 12.5143 3.27517 11.9636C3.76071 11.0533 4.04401 10.0489 4.10571 9.01901V6.53243C4.08574 5.94252 4.18469 5.35462 4.39667 4.80374C4.60864 4.25286 4.9293 3.75028 5.33955 3.32591C5.74981 2.90153 6.24126 2.56406 6.78466 2.33358C7.32805 2.10309 7.91226 1.98431 8.50252 1.98431C9.09277 1.98431 9.67699 2.10309 10.2204 2.33358C10.7638 2.56406 11.2552 2.90153 11.6655 3.32591C12.0757 3.75028 12.3964 4.25286 12.6084 4.80374C12.8203 5.35462 12.9193 5.94252 12.8993 6.53243V9.01901C12.961 10.0489 13.2443 11.0533 13.7299 11.9636C14.0774 12.5143 14.4897 13.0213 14.9581 13.4737H2.04698Z" fill="#303030"/>
<path id="Vector_2" d="M8.52502 16.1616C8.8421 16.1543 9.14638 16.0351 9.38405 15.825C9.62171 15.615 9.77743 15.3277 9.82368 15.0139H7.17603C7.22358 15.3362 7.38659 15.6303 7.63473 15.8414C7.88288 16.0525 8.19926 16.1663 8.52502 16.1616Z" fill="#303030"/>
</g>
</g>
<defs>
<clipPath id="clip0_731_4210">
<rect width="17" height="17" fill="white"/>
</clipPath>
</defs>
</svg>
