<svg width="15" height="15" viewBox="0 0 15 15" fill="none" xmlns="http://www.w3.org/2000/svg">
<g id="clarity:user-line" clip-path="url(#clip0_947_861)">
<path id="Vector" d="M7.91667 6.83333C8.49353 6.83333 9.05744 6.66228 9.53708 6.34179C10.0167 6.0213 10.3906 5.56578 10.6113 5.03283C10.8321 4.49988 10.8898 3.91343 10.7773 3.34765C10.6648 2.78188 10.387 2.26218 9.97906 1.85427C9.57116 1.44637 9.05146 1.16858 8.48568 1.05604C7.9199 0.943504 7.33346 1.00126 6.80051 1.22202C6.26756 1.44277 5.81203 1.81661 5.49155 2.29625C5.17106 2.7759 5 3.33981 5 3.91667C5 4.69022 5.30729 5.43208 5.85427 5.97906C6.40125 6.52604 7.14312 6.83333 7.91667 6.83333ZM7.91667 1.83333C8.32871 1.83333 8.7315 1.95552 9.07411 2.18444C9.41671 2.41336 9.68373 2.73873 9.84142 3.11941C9.9991 3.50009 10.0404 3.91898 9.95997 4.32311C9.87959 4.72723 9.68117 5.09845 9.38981 5.38981C9.09845 5.68117 8.72723 5.87959 8.32311 5.95997C7.91898 6.04036 7.50009 5.9991 7.11941 5.84142C6.73873 5.68373 6.41336 5.41671 6.18444 5.07411C5.95552 4.7315 5.83333 4.32871 5.83333 3.91667C5.83333 3.36413 6.05283 2.83423 6.44353 2.44353C6.83423 2.05283 7.36413 1.83333 7.91667 1.83333Z" fill="#303030"/>
<path id="Vector_2" d="M12.6125 10.1542C11.9443 9.44796 11.1391 8.88542 10.2461 8.50096C9.35305 8.1165 8.39101 7.91821 7.41875 7.91821C6.4465 7.91821 5.48446 8.1165 4.59144 8.50096C3.69843 8.88542 2.89321 9.44796 2.225 10.1542C2.08013 10.3089 1.99967 10.5131 2 10.725V12.9167C2 13.1377 2.0878 13.3497 2.24408 13.506C2.40036 13.6622 2.61232 13.75 2.83333 13.75H12C12.221 13.75 12.433 13.6622 12.5893 13.506C12.7455 13.3497 12.8333 13.1377 12.8333 12.9167V10.725C12.8348 10.5136 12.7559 10.3096 12.6125 10.1542ZM12 12.9167H2.83333V10.7209C3.42385 10.0991 4.13471 9.60393 4.92265 9.26558C5.7106 8.92722 6.55915 8.75274 7.41667 8.75274C8.27419 8.75274 9.12274 8.92722 9.91069 9.26558C10.6986 9.60393 11.4095 10.0991 12 10.7209V12.9167Z" fill="#303030"/>
</g>
<defs>
<clipPath id="clip0_947_861">
<rect width="15" height="15" fill="white"/>
</clipPath>
</defs>
</svg>
