<svg width="19" height="19" viewBox="0 0 19 19" fill="none" xmlns="http://www.w3.org/2000/svg">
<g id="Coin" clip-path="url(#clip0_731_4301)">
<path id="Vector" d="M6.53125 11.2943C6.6215 12.4272 7.51688 13.3095 9.12238 13.414V14.25H9.83487V13.4081C11.4974 13.2917 12.4688 12.4034 12.4688 11.1138C12.4688 9.94175 11.7254 9.33731 10.3966 9.02381L9.83487 8.89081V6.61438C10.5474 6.69513 11.001 7.08463 11.1102 7.62375H12.3595C12.2692 6.53244 11.3335 5.67862 9.83487 5.586V4.75H9.12238V5.60381C7.70331 5.74275 6.7355 6.59656 6.7355 7.80425C6.7355 8.873 7.45512 9.55225 8.65094 9.83131L9.12238 9.94769V12.3631C8.39206 12.2526 7.90875 11.8524 7.7995 11.2943H6.53125ZM9.11644 8.72219C8.41581 8.5595 8.03581 8.22819 8.03581 7.72944C8.03581 7.17131 8.4455 6.75331 9.12238 6.631V8.721L9.11644 8.72219ZM9.93819 10.1389C10.7896 10.336 11.1827 10.6554 11.1827 11.2195C11.1827 11.8631 10.6934 12.3049 9.83487 12.3856V10.1151L9.93819 10.1389Z" fill="#303030"/>
<path id="Vector_2" d="M9.5 17.8125C7.29539 17.8125 5.18107 16.9367 3.62217 15.3778C2.06328 13.8189 1.1875 11.7046 1.1875 9.5C1.1875 7.29539 2.06328 5.18107 3.62217 3.62217C5.18107 2.06328 7.29539 1.1875 9.5 1.1875C11.7046 1.1875 13.8189 2.06328 15.3778 3.62217C16.9367 5.18107 17.8125 7.29539 17.8125 9.5C17.8125 11.7046 16.9367 13.8189 15.3778 15.3778C13.8189 16.9367 11.7046 17.8125 9.5 17.8125ZM9.5 19C12.0196 19 14.4359 17.9991 16.2175 16.2175C17.9991 14.4359 19 12.0196 19 9.5C19 6.98044 17.9991 4.56408 16.2175 2.78249C14.4359 1.00089 12.0196 0 9.5 0C6.98044 0 4.56408 1.00089 2.78249 2.78249C1.00089 4.56408 0 6.98044 0 9.5C0 12.0196 1.00089 14.4359 2.78249 16.2175C4.56408 17.9991 6.98044 19 9.5 19Z" fill="#303030"/>
<path id="Vector_3" d="M9.5 16.0312C7.76781 16.0312 6.10656 15.3431 4.88171 14.1183C3.65686 12.8934 2.96875 11.2322 2.96875 9.5C2.96875 7.76781 3.65686 6.10656 4.88171 4.88171C6.10656 3.65686 7.76781 2.96875 9.5 2.96875C11.2322 2.96875 12.8934 3.65686 14.1183 4.88171C15.3431 6.10656 16.0312 7.76781 16.0312 9.5C16.0312 11.2322 15.3431 12.8934 14.1183 14.1183C12.8934 15.3431 11.2322 16.0312 9.5 16.0312ZM9.5 16.625C10.4357 16.625 11.3622 16.4407 12.2266 16.0826C13.0911 15.7246 13.8765 15.1998 14.5381 14.5381C15.1998 13.8765 15.7246 13.0911 16.0826 12.2266C16.4407 11.3622 16.625 10.4357 16.625 9.5C16.625 8.56433 16.4407 7.63783 16.0826 6.77338C15.7246 5.90894 15.1998 5.12348 14.5381 4.46186C13.8765 3.80025 13.0911 3.27542 12.2266 2.91736C11.3622 2.55929 10.4357 2.375 9.5 2.375C7.61033 2.375 5.79806 3.12567 4.46186 4.46186C3.12567 5.79806 2.375 7.61033 2.375 9.5C2.375 11.3897 3.12567 13.2019 4.46186 14.5381C5.79806 15.8743 7.61033 16.625 9.5 16.625Z" fill="#303030"/>
</g>
<defs>
<clipPath id="clip0_731_4301">
<rect width="19" height="19" fill="white"/>
</clipPath>
</defs>
</svg>
