<svg width="12" height="16" viewBox="0 0 12 16" fill="none" xmlns="http://www.w3.org/2000/svg">
<g id="Layer 2">
<path id="Vector" d="M6.17323 3.8826L4.47612 0.318068C4.43068 0.222878 4.35803 0.142319 4.26678 0.0859439C4.17554 0.0295686 4.06953 -0.000257863 3.96133 1.68316e-06H0.567106C0.472006 -0.000226699 0.378381 0.0227897 0.294887 0.0669232C0.211392 0.111057 0.140723 0.174883 0.0894105 0.252502C0.0380984 0.33012 0.00780029 0.419026 0.00131646 0.511001C-0.00516736 0.602976 0.0123726 0.695052 0.0523149 0.778716L3.39563 7.76521C3.42849 7.83528 3.47619 7.89786 3.53565 7.94888C3.5951 7.9999 3.66497 8.03822 3.74071 8.06134C3.81677 8.08394 3.89689 8.09074 3.97585 8.08129C4.05481 8.07185 4.13082 8.04636 4.19893 8.0065L4.2951 7.96263C4.42483 7.90611 4.52783 7.8043 4.58361 7.67746L6.17323 4.33777C6.20685 4.26632 6.22425 4.18871 6.22425 4.11019C6.22425 4.03166 6.20685 3.95405 6.17323 3.8826Z" fill="#2185F5"/>
<path id="Vector_2" d="M11.2247 0.252261C11.1736 0.175033 11.1033 0.111472 11.0203 0.0674001C10.9372 0.0233283 10.8441 0.000154537 10.7495 1.67957e-06H7.35526C7.24706 -0.000257867 7.14105 0.0295686 7.04981 0.0859439C6.95856 0.142319 6.88591 0.222878 6.84047 0.318068L3.55373 7.2223C3.50647 7.32326 3.49189 7.43572 3.51191 7.54488C3.53192 7.65403 3.58559 7.75474 3.66585 7.83372C3.7461 7.9127 3.84916 7.96625 3.96144 7.98731C4.07372 8.00836 4.18995 7.99593 4.2948 7.95166C4.74924 7.75981 5.24151 7.66678 5.73701 7.67909C6.23251 7.69141 6.71922 7.80878 7.16292 8.02295C7.2301 8.05458 7.30307 8.07301 7.37763 8.07716C7.45219 8.08132 7.52686 8.07112 7.59733 8.04716C7.6678 8.02319 7.73268 7.98594 7.78823 7.93755C7.84378 7.88916 7.88889 7.83058 7.92096 7.76521L11.2643 0.778716C11.3039 0.69482 11.321 0.60259 11.3141 0.510566C11.3072 0.418541 11.2764 0.329698 11.2247 0.252261Z" fill="#83BDFF"/>
<path id="Vector_3" d="M10.1841 10.9676C10.1845 11.7494 9.96941 12.5171 9.56105 13.1913C9.15269 13.8655 8.56589 14.4216 7.8614 14.8022C7.1569 15.1828 6.3603 15.3739 5.55402 15.3559C4.74774 15.3378 3.96108 15.1113 3.27544 14.6996C2.58981 14.2879 2.03011 13.7061 1.65427 13.0144C1.27843 12.3227 1.10011 11.5461 1.13774 10.7652C1.17538 9.98423 1.42762 9.22721 1.86835 8.57246C2.30908 7.91772 2.9223 7.38903 3.64454 7.04113C3.71294 7.00193 3.78489 6.96889 3.85951 6.94242C4.42563 6.69867 5.03902 6.57526 5.65845 6.58048C6.85872 6.58048 8.00983 7.04269 8.85855 7.86544C9.70727 8.68818 10.1841 9.80407 10.1841 10.9676Z" fill="#A5A5A5"/>
<path id="Vector_4" d="M10.1841 10.9677C10.1841 12.1312 9.70727 13.2471 8.85855 14.0698C8.00983 14.8926 6.85872 15.3548 5.65845 15.3548V6.58057C6.85872 6.58057 8.00983 7.04278 8.85855 7.86552C9.70727 8.68827 10.1841 9.80415 10.1841 10.9677Z" fill="#D9D9D9"/>
</g>
</svg>
