<svg width="15" height="16" viewBox="0 0 15 16" fill="none" xmlns="http://www.w3.org/2000/svg">
<path id="Vector" d="M13.5938 1.25H11.5625V0.46875C11.5625 0.34443 11.5131 0.225201 11.4252 0.137294C11.3373 0.049386 11.2181 0 11.0938 0C10.9694 0 10.8502 0.049386 10.7623 0.137294C10.6744 0.225201 10.625 0.34443 10.625 0.46875V1.25H4.0625V0.46875C4.0625 0.34443 4.01311 0.225201 3.92521 0.137294C3.8373 0.049386 3.71807 0 3.59375 0C3.46943 0 3.3502 0.049386 3.26229 0.137294C3.17439 0.225201 3.125 0.34443 3.125 0.46875V1.25H1.09375C0.803669 1.25 0.52547 1.36523 0.320352 1.57035C0.115234 1.77547 0 2.05367 0 2.34375V14.8438C0 15.1338 0.115234 15.412 0.320352 15.6171C0.52547 15.8223 0.803669 15.9375 1.09375 15.9375H13.5938C13.8838 15.9375 14.162 15.8223 14.3671 15.6171C14.5723 15.412 14.6875 15.1338 14.6875 14.8438V2.34375C14.6875 2.05367 14.5723 1.77547 14.3671 1.57035C14.162 1.36523 13.8838 1.25 13.5938 1.25ZM1.09375 2.1875H3.125V2.96875C3.125 3.09307 3.17439 3.2123 3.26229 3.30021C3.3502 3.38811 3.46943 3.4375 3.59375 3.4375C3.71807 3.4375 3.8373 3.38811 3.92521 3.30021C4.01311 3.2123 4.0625 3.09307 4.0625 2.96875V2.1875H10.625V2.96875C10.625 3.09307 10.6744 3.2123 10.7623 3.30021C10.8502 3.38811 10.9694 3.4375 11.0938 3.4375C11.2181 3.4375 11.3373 3.38811 11.4252 3.30021C11.5131 3.2123 11.5625 3.09307 11.5625 2.96875V2.1875H13.5938C13.6352 2.1875 13.6749 2.20396 13.7042 2.23326C13.7335 2.26257 13.75 2.30231 13.75 2.34375V5H0.9375V2.34375C0.9375 2.30231 0.953962 2.26257 0.983264 2.23326C1.01257 2.20396 1.05231 2.1875 1.09375 2.1875ZM13.5938 15H1.09375C1.05231 15 1.01257 14.9835 0.983264 14.9542C0.953962 14.9249 0.9375 14.8852 0.9375 14.8438V5.9375H13.75V14.8438C13.75 14.8852 13.7335 14.9249 13.7042 14.9542C13.6749 14.9835 13.6352 15 13.5938 15Z" fill="#303030"/>
</svg>
