<svg width="19" height="17" viewBox="0 0 19 17" fill="none" xmlns="http://www.w3.org/2000/svg">
<path id="Vector" d="M17.48 3.04H2.28C2.07844 3.04 1.88513 2.95993 1.7426 2.8174C1.60007 2.67487 1.52 2.48156 1.52 2.28C1.52 2.07844 1.60007 1.88513 1.7426 1.7426C1.88513 1.60007 2.07844 1.52 2.28 1.52H15.2C15.4016 1.52 15.5949 1.43993 15.7374 1.2974C15.8799 1.15487 15.96 0.961565 15.96 0.76C15.96 0.558435 15.8799 0.365127 15.7374 0.222599C15.5949 0.0800714 15.4016 0 15.2 0H2.28C1.67608 0.00250075 1.0976 0.243518 0.67056 0.67056C0.243517 1.0976 0.00250075 1.67608 0 2.28V14.44C0.00250075 15.0439 0.243517 15.6224 0.67056 16.0494C1.0976 16.4765 1.67608 16.7175 2.28 16.72H17.48C17.8831 16.72 18.2697 16.5599 18.5548 16.2748C18.8399 15.9897 19 15.6031 19 15.2V4.56C19 4.15687 18.8399 3.77025 18.5548 3.4852C18.2697 3.20014 17.8831 3.04 17.48 3.04ZM17.48 15.2H2.28C2.07844 15.2 1.88513 15.1199 1.7426 14.9774C1.60007 14.8349 1.52 14.6416 1.52 14.44V4.427C1.76374 4.51492 2.02088 4.55992 2.28 4.56H17.48V15.2ZM12.92 9.88C12.92 9.65453 12.9869 9.43412 13.1121 9.24665C13.2374 9.05918 13.4154 8.91306 13.6237 8.82678C13.832 8.74049 14.0613 8.71792 14.2824 8.7619C14.5035 8.80589 14.7067 8.91447 14.8661 9.0739C15.0255 9.23333 15.1341 9.43646 15.1781 9.6576C15.2221 9.87874 15.1995 10.108 15.1132 10.3163C15.0269 10.5246 14.8808 10.7026 14.6933 10.8279C14.5059 10.9531 14.2855 11.02 14.06 11.02C13.7577 11.02 13.4677 10.8999 13.2539 10.6861C13.0401 10.4723 12.92 10.1823 12.92 9.88Z" fill="#303030"/>
</svg>
